<svg width="22" height="22" viewBox="0 0 22 22" fill="none" xmlns="http://www.w3.org/2000/svg">
<path d="M10.0833 18.7917C10.0833 19.551 9.4677 20.1667 8.70831 20.1667C7.94892 20.1667 7.33331 19.551 7.33331 18.7917C7.33331 18.0323 7.94892 17.4167 8.70831 17.4167C9.4677 17.4167 10.0833 18.0323 10.0833 18.7917Z" stroke="white" stroke-width="1.2"/>
<path d="M18.3333 18.7917C18.3333 19.551 17.7177 20.1667 16.9583 20.1667C16.1989 20.1667 15.5833 19.551 15.5833 18.7917C15.5833 18.0323 16.1989 17.4167 16.9583 17.4167C17.7177 17.4167 18.3333 18.0323 18.3333 18.7917Z" stroke="white" stroke-width="1.2"/>
<path d="M5.49998 3.66668H16.5C18.525 3.66668 20.1666 5.3083 20.1666 7.33334V11.9167C20.1666 13.9417 18.525 15.5833 16.5 15.5833H9.16665C7.1416 15.5833 5.49998 13.9417 5.49998 11.9167V3.66668ZM5.49998 3.66668C5.49998 2.65415 4.67917 1.83334 3.66665 1.83334H1.83331M5.49998 7.33334H19.7083" stroke="white" stroke-width="1.2" stroke-linecap="round" stroke-linejoin="round"/>
</svg>
