<svg width="24" height="24" viewBox="0 0 24 24" fill="none" xmlns="http://www.w3.org/2000/svg">
<mask id="path-1-inside-1_4_234" fill="white">
<path d="M0 8.21053C0 3.67598 3.67598 0 8.21053 0H15.7895C20.324 0 24 3.67598 24 8.21053V15.7895C24 20.324 20.324 24 15.7895 24H8.21053C3.67598 24 0 20.324 0 15.7895V8.21053Z"/>
</mask>
<path d="M0 0H24H0ZM24 15.7895C24 22.0681 18.9102 27.1579 12.6316 27.1579H11.3684C5.08982 27.1579 0 22.0681 0 15.7895C0 18.58 3.67598 20.8421 8.21053 20.8421H15.7895C20.324 20.8421 24 18.58 24 15.7895ZM0 24V0V24ZM24 0V24V0Z" fill="#969595" mask="url(#path-1-inside-1_4_234)"/>
<rect x="0.315789" y="0.315789" width="23.3684" height="23.3684" rx="7.26316" stroke="#898989" stroke-width="0.631579"/>
<path d="M9.72 17L13.02 7.58H13.89L10.59 17H9.72Z" fill="#898989"/>
</svg>
