<svg width="175" height="48" viewBox="0 0 175 48" fill="none" xmlns="http://www.w3.org/2000/svg">
<path d="M22.9493 2.84135C22.2402 2.96754 21.5714 3.48489 21.3114 4.10825C21.1398 4.52213 21.1222 4.87797 21.2433 5.34233C21.3745 5.8395 21.5234 6.11459 21.8162 6.40229C22.4824 7.05845 23.5399 7.1594 24.3298 6.64456C24.9809 6.22058 25.3493 5.52909 25.314 4.79469C25.2964 4.45652 25.2333 4.21424 25.0793 3.92906C24.7992 3.39656 24.3399 3.01296 23.82 2.87416C23.6383 2.82621 23.1411 2.80602 22.9493 2.84135ZM23.0932 3.31833C23.1664 3.36123 23.2774 3.5278 23.2774 3.59341C23.2774 3.66912 23.1108 3.80036 22.919 3.87859C22.6843 3.97449 22.4824 4.14106 22.3764 4.32528C22.2452 4.55494 22.1291 4.6256 21.9525 4.57765C21.6496 4.49437 21.7178 4.11077 22.1039 3.71203C22.4597 3.34357 22.8686 3.17953 23.0932 3.31833Z" fill="white"/>
<path d="M19.6812 6.14484C18.9619 6.29626 17.483 6.76062 16.678 7.08618C12.8874 8.62311 9.82613 10.9298 7.50685 13.9935C6.98193 14.685 6.70684 15.1065 6.21472 15.9671C5.30872 17.5494 5.01597 18.2081 4.57684 19.6693C4.30176 20.5905 4.25886 20.7545 4.09987 21.4511C3.94844 22.1148 3.89545 22.4631 3.89545 22.7709C3.89545 22.9804 3.90049 23.0031 3.95097 23.0385C4.00144 23.0738 4.47085 23.0788 8.46586 23.0788H12.9227L12.9 23.2353C12.8899 23.3236 12.8344 23.5583 12.7789 23.7602C12.5921 24.4492 12.524 24.8984 12.4735 25.759C12.4154 26.7786 12.4912 27.4574 12.7662 28.4165C12.8823 28.8202 13.0691 29.325 13.218 29.6455L13.3063 29.8423L9.69238 29.8247C6.2551 29.8121 4.76107 29.8297 4.24876 29.8903L4.10996 29.9054L4.11248 30.0947C4.12006 30.4733 4.37747 31.2884 4.91502 32.626C5.4349 33.9232 5.75289 34.5743 6.33586 35.5459C7.15606 36.9062 8.02421 38.0469 9.02864 39.0765C9.36429 39.4172 10.2981 40.2602 10.8356 40.7043C12.7486 42.2867 15.1966 43.5864 17.6748 44.341C19.0326 44.7523 20.2969 44.9946 21.8642 45.141C22.326 45.1839 24.2566 45.1839 24.7412 45.141C28.0068 44.8508 30.7955 43.9145 33.5993 42.1706C34.2757 41.7466 35.2145 41.0854 35.6309 40.7321C35.7142 40.6614 35.9413 40.4747 36.1357 40.3157C36.648 39.8993 36.8423 39.7176 37.2284 39.2936C37.4177 39.0841 37.718 38.7661 37.8921 38.5844C38.3918 38.062 38.8991 37.4361 39.2726 36.8784C39.6663 36.2929 40.537 34.8367 40.7742 34.3673C41.3446 33.2367 41.8569 31.9648 42.1673 30.9149C42.4096 30.0897 42.4197 29.9786 42.2708 29.8802C42.2102 29.8398 41.8518 29.8373 37.6625 29.8398L33.1173 29.8449L33.1855 29.7111C33.2864 29.5117 33.5085 28.9515 33.5817 28.7067C33.8391 27.8587 33.9527 27.0663 33.9527 26.1325C33.9527 25.2038 33.8643 24.5375 33.6523 23.8864C33.5262 23.4978 33.4479 23.2075 33.4479 23.1217C33.4479 23.0814 33.6751 23.0788 37.8846 23.0788C40.5042 23.0788 42.3591 23.0687 42.4197 23.0536C42.4777 23.041 42.5458 23.0006 42.5812 22.9602C42.6367 22.8971 42.6392 22.8769 42.6266 22.7129C42.6089 22.5236 42.2304 20.9715 42.0436 20.328C41.6928 19.1192 41.1654 17.7463 40.6404 16.6813C40.2569 15.9014 39.4821 14.632 38.9546 13.9178C38.73 13.615 38.1319 12.873 37.766 12.4415C37.4455 12.0654 36.9003 11.5153 36.6303 11.2982C36.4991 11.1922 36.171 10.9146 35.901 10.6799C35.0858 9.97076 34.5735 9.58464 33.6725 8.98652C33.0567 8.58273 32.5419 8.28998 31.694 7.87357C29.6952 6.88681 27.7999 6.24831 26.4194 6.09436C26.0989 6.05903 25.9273 6.06156 25.9273 6.10194C25.9273 6.17513 25.7229 6.54611 25.5816 6.73791C25.2055 7.2376 24.7311 7.5783 24.1355 7.77262C23.6964 7.91647 23.6434 7.97704 23.6055 8.3985C23.5777 8.68368 23.6005 12.2143 23.6307 12.5828C23.656 12.8882 23.7039 13.032 23.8099 13.1229C23.9159 13.2087 24.0169 13.2339 24.4762 13.2743C25.0137 13.3248 25.3872 13.3778 25.8163 13.4661C27.5046 13.8118 29.193 14.6169 30.8208 15.851C31.6006 16.4415 31.7798 16.6131 32.0902 17.0851C32.4132 17.5721 32.5848 18.034 32.6025 18.468C32.6126 18.6876 32.6201 18.728 32.6757 18.8012C32.711 18.8466 32.9482 19.0409 33.2006 19.2327C33.7129 19.6214 34.1722 20.058 34.4195 20.3987L34.571 20.6056H35.27C35.9136 20.6056 35.9691 20.6031 35.9817 20.5602C35.9893 20.5375 36.0095 20.4138 36.0271 20.2902C36.065 20.01 36.0625 17.8119 36.0221 17.5595C35.9817 17.3172 35.9211 17.2188 35.5956 16.8832C35.2927 16.5727 35.2145 16.4541 35.1489 16.2068C35.1085 16.0529 35.1035 15.6945 35.1413 15.533C35.2726 14.9652 35.8631 14.5235 36.489 14.5235C36.8625 14.5235 37.1678 14.6598 37.4253 14.9349C37.8821 15.4295 37.9552 16.0857 37.6145 16.6106C37.5237 16.7519 37.4126 16.863 37.1401 17.0901C37.0669 17.1507 36.9861 17.2491 36.9533 17.3147C36.8852 17.4586 36.8852 17.4384 36.9155 19.2428C36.9306 20.2094 36.9281 20.6536 36.9054 20.8832C36.8776 21.1936 36.8473 21.3779 36.8221 21.4056C36.8145 21.4132 36.6959 21.4359 36.5596 21.4586C36.3678 21.4889 36.118 21.499 35.4416 21.499C34.0637 21.499 34.0309 21.4864 33.4151 20.6561C33.2763 20.4693 33.1072 20.2624 33.0366 20.1943C32.923 20.0857 32.6757 19.9318 32.6504 19.957C32.6277 19.9797 32.5873 20.2775 32.5268 20.8832C32.4233 21.9179 32.2996 22.5362 32.0246 23.3691C31.7924 24.0681 31.6738 24.3684 31.4214 24.9085C31.169 25.4486 31.1034 25.6227 31.0857 25.8019C31.063 25.9988 31.1009 26.1098 31.3406 26.5868C31.9741 27.8486 32.3829 29.3603 32.5899 31.2178C32.6201 31.4802 32.6479 31.6998 32.653 31.7048C32.663 31.7174 32.8145 31.6367 32.9003 31.5736C32.9381 31.5458 33.0719 31.402 33.1955 31.2531C33.4303 30.9755 33.5539 30.872 33.718 30.8114C34.0183 30.7054 34.2378 30.8442 34.2353 31.142C34.2328 31.5155 33.8896 31.9698 33.246 32.4518C32.6504 32.896 32.6277 32.9238 32.5394 33.3629C32.388 34.1124 32.0902 34.6348 31.4567 35.2683C31.0857 35.6367 30.7879 35.8815 30.3034 36.2096C29.4857 36.7623 28.5974 37.2166 27.656 37.5648C26.7778 37.8904 25.5715 38.1529 24.4383 38.2715C23.7998 38.3371 23.7443 38.3497 23.6913 38.4532C23.656 38.5188 23.6535 38.5945 23.6686 39.0008C23.6812 39.3188 23.6762 39.5611 23.656 39.7478C23.6181 40.0986 23.6358 40.1491 23.873 40.3561C23.9689 40.4368 24.1279 40.5857 24.2289 40.6867C24.8068 41.2646 24.7992 42.057 24.2112 42.64C23.7519 43.0943 23.1487 43.2104 22.6086 42.9428C22.1014 42.693 21.8339 42.2539 21.8314 41.6659C21.8288 41.3075 21.9222 41.0122 22.114 40.7573C22.167 40.6867 22.331 40.5352 22.4774 40.4191C22.6238 40.3031 22.7575 40.1794 22.7752 40.1415C22.803 40.0911 22.8131 39.9018 22.8181 39.3693C22.8257 38.6753 22.8232 38.6601 22.7676 38.5491C22.6616 38.3421 22.4724 38.2816 21.7254 38.2084C20.4332 38.0822 19.0629 37.6734 17.7127 37.0096C16.5745 36.4468 15.6735 35.8386 15.0098 35.18C14.4243 34.5995 14.1543 34.1553 13.965 33.4765C13.9095 33.2746 13.8312 33.0399 13.7883 32.9541C13.6975 32.7698 13.4981 32.5755 13.2432 32.4241C12.529 31.9951 12.1328 31.3793 12.3296 31.0058C12.4079 30.8569 12.4962 30.7938 12.6325 30.7938C12.8167 30.7938 12.9227 30.867 13.2836 31.2379C13.4703 31.4297 13.6571 31.6039 13.695 31.6241C13.8842 31.7225 13.9322 31.5938 13.9776 30.8543C14.023 30.1502 14.0508 29.9281 14.1467 29.4638C14.3713 28.3559 14.659 27.4953 15.088 26.6372C15.3152 26.1805 15.4035 25.9331 15.4035 25.7514C15.401 25.5697 15.3909 25.542 15.0678 24.8555C14.3839 23.4145 14.0584 22.188 13.9019 20.4794C13.8792 20.222 13.8539 19.9999 13.8489 19.9823C13.8338 19.9217 13.6823 20.005 13.5032 20.1741C13.4073 20.2649 13.218 20.4946 13.0842 20.6813C12.8041 21.0725 12.5593 21.3425 12.4154 21.4208C12.3145 21.4763 12.2867 21.4763 11.1763 21.4839C9.89175 21.4914 9.82865 21.4839 9.73275 21.34C9.6848 21.2693 9.67471 21.2214 9.67471 21.0548C9.67471 20.8681 9.67976 20.8479 9.74537 20.7823C9.89175 20.6384 9.99774 20.6233 11.0148 20.6081C11.893 20.593 11.9435 20.5905 11.999 20.5425C12.0293 20.5148 12.1833 20.3179 12.3423 20.1059C12.7284 19.5886 12.7587 19.5558 13.2003 19.2277C13.7151 18.8416 13.8035 18.728 13.8767 18.3696C14.0382 17.5772 14.4823 16.8125 15.088 16.285C15.3152 16.0857 16.2918 15.374 16.6855 15.1191C18.0054 14.2636 19.6887 13.6377 21.4654 13.3374C21.7052 13.297 22.0156 13.2591 22.1544 13.249C22.5228 13.2263 22.6314 13.196 22.7197 13.0976C22.7727 13.0345 22.7979 12.9765 22.8105 12.8781C22.8181 12.8049 22.8232 11.7045 22.8181 10.4351C22.8105 8.1638 22.8105 8.12342 22.7601 8.03761C22.6844 7.91143 22.5203 7.81048 22.1367 7.65906C21.4654 7.39659 21.2787 7.24769 20.8496 6.64201C20.408 6.01613 20.3701 6.00099 19.6812 6.14484ZM18.1039 8.55497V8.71901H17.965H17.8262V8.55497V8.39093H17.965H18.1039V8.55497ZM19.9159 8.53983C19.9487 8.69125 19.9916 8.74929 20.0925 8.7821C20.1531 8.79977 20.2238 8.92847 20.2238 9.0168C20.2238 9.05214 20.201 9.0698 20.1455 9.08242C20.0446 9.10261 19.9007 9.25655 19.8906 9.3575C19.8856 9.40041 19.8603 9.44836 19.8275 9.47107C19.7745 9.50388 19.7695 9.50388 19.7543 9.46098C19.6761 9.21618 19.5499 9.03195 19.4439 9.00923C19.3808 8.99662 19.3657 8.97895 19.3657 8.92343C19.3657 8.8679 19.3834 8.85024 19.4515 8.825C19.5575 8.78715 19.608 8.7291 19.6509 8.60292C19.6812 8.51711 19.8099 8.39093 19.8679 8.39093C19.878 8.39093 19.8982 8.45654 19.9159 8.53983ZM26.6087 8.44645C26.6087 8.64582 26.7273 8.80481 26.8939 8.83762C26.9923 8.85781 26.9999 8.86538 27.0074 8.94867C27.015 9.03447 27.0074 9.04456 26.8939 9.10009C26.8232 9.13542 26.7526 9.19599 26.7223 9.24394C26.5229 9.57202 26.4573 9.64016 26.4573 9.51649C26.4573 9.43069 26.3942 9.27674 26.3286 9.20608C26.2781 9.15561 26.2377 9.13289 26.0712 9.07233C26.003 9.04709 26.003 9.04709 26.0409 8.96885C26.0686 8.91586 26.1242 8.87296 26.215 8.83257C26.3765 8.76191 26.3967 8.73668 26.4346 8.5802C26.4497 8.50954 26.4674 8.43888 26.4724 8.42121C26.4775 8.40607 26.5103 8.39093 26.5456 8.39093C26.5936 8.39093 26.6087 8.40355 26.6087 8.44645ZM28.9482 8.57264C29.0037 8.63068 29.0012 8.80734 28.9431 8.87043C28.9078 8.91081 28.8649 8.9209 28.7488 8.9209C28.5797 8.9209 28.5646 8.90576 28.5646 8.71901C28.5646 8.52468 28.5797 8.50954 28.7538 8.52216C28.8472 8.52973 28.9229 8.54992 28.9482 8.57264ZM15.7063 9.11018C15.7063 9.2616 15.6432 9.3247 15.4944 9.3247C15.3581 9.3247 15.3152 9.28179 15.3354 9.15813C15.3581 9.01933 15.3909 8.99662 15.5574 8.99662H15.7063V9.11018ZM30.8258 10.1727C31.5577 10.3897 32.0347 11.1468 31.8731 11.8332C31.7798 12.2269 31.5173 12.5525 31.1488 12.7317C30.9419 12.8301 30.9343 12.8326 30.6618 12.8326C30.2201 12.8326 29.9198 12.767 29.7356 12.6333C29.6851 12.5979 29.5942 12.502 29.5362 12.4213C29.4781 12.343 29.3923 12.2471 29.3494 12.2093C29.0769 11.9796 28.552 11.9216 27.1639 11.9695C26.3437 11.9998 25.9374 11.9821 25.8011 11.9115C25.5462 11.7803 25.5816 11.3992 25.8642 11.2377L25.9652 11.1796H27.4415C28.8094 11.1796 28.9255 11.1771 29.0188 11.1342C29.1576 11.0711 29.246 10.9802 29.3621 10.7809C29.6043 10.3695 30.0031 10.1373 30.4725 10.1348C30.6012 10.1323 30.7425 10.1474 30.8258 10.1727ZM16.8723 10.2357C17.0767 10.3039 17.2609 10.4301 17.4351 10.6168C17.6773 10.8768 17.801 11.1872 17.801 11.5329C17.801 11.9241 17.6622 12.2648 17.3972 12.5298C17.0616 12.8654 16.6275 12.979 16.153 12.8604C15.8098 12.7721 15.6104 12.6434 15.348 12.3456C15.0477 12.0023 15.2798 12.0402 13.4754 12.0402C11.9587 12.0377 11.9057 12.0351 11.8098 11.9872C11.7542 11.9594 11.6886 11.9064 11.6609 11.8711C11.5978 11.7853 11.5725 11.5026 11.618 11.3941C11.6533 11.3083 11.7769 11.2326 11.9334 11.2023C11.9889 11.1922 12.683 11.1821 13.4754 11.1821L14.9164 11.1796L15.0098 11.114C15.0603 11.0787 15.1814 10.9474 15.2798 10.8238C15.4918 10.5563 15.666 10.3746 15.772 10.3089C15.9839 10.1752 16.5795 10.1373 16.8723 10.2357ZM25.0693 10.3468V10.5108H24.9355H24.8017L24.7765 10.4124C24.7538 10.3316 24.7563 10.3014 24.7891 10.2484C24.8219 10.1928 24.8472 10.1828 24.9481 10.1828H25.0693V10.3468ZM21.4856 10.4175C21.4856 10.6017 21.4604 10.637 21.3291 10.637C21.213 10.637 21.107 10.5487 21.107 10.4503C21.107 10.4175 21.102 10.372 21.0944 10.3544C21.0742 10.3014 21.1752 10.261 21.3418 10.261L21.4856 10.2585V10.4175ZM33.299 10.7077C33.3495 10.7506 33.3545 10.7657 33.3318 10.8667L33.3091 10.9777L33.1779 10.9853L33.0467 10.9929L33.0189 10.8894C33.0037 10.8313 32.9861 10.7708 32.9785 10.7531C32.9457 10.6698 33.2056 10.6345 33.299 10.7077ZM19.926 11.6061C20.1354 11.7424 20.0471 12.126 19.7846 12.2244C19.7014 12.2572 19.6736 12.2547 19.5575 12.2194C19.4364 12.1815 19.4212 12.1664 19.396 12.078C19.3329 11.8686 19.3834 11.5985 19.4944 11.5657C19.5928 11.5355 19.8553 11.5607 19.926 11.6061ZM33.5741 12.6863C33.5766 12.8755 33.6221 13.1355 33.6751 13.2364C33.7407 13.3677 33.8769 13.4535 34.0738 13.4913C34.2227 13.5191 34.2303 13.5241 34.2303 13.5948C34.2303 13.6983 34.1293 13.7916 34.0183 13.7916C33.8845 13.7916 33.8088 13.8295 33.7255 13.9456C33.6549 14.044 33.6498 14.0667 33.6498 14.2636C33.6498 14.4402 33.6397 14.4907 33.5968 14.5513C33.5337 14.6421 33.4908 14.6446 33.4252 14.5588C33.3848 14.5058 33.3722 14.4554 33.3722 14.3267C33.3722 14.1298 33.3116 13.9834 33.1804 13.8699C33.0971 13.7942 32.8877 13.7159 32.7741 13.7159C32.7236 13.7159 32.716 13.7033 32.716 13.6175C32.716 13.509 32.7186 13.5065 32.9053 13.4762C33.2006 13.4282 33.3444 13.2213 33.3672 12.8175L33.3798 12.5803H33.4757H33.5741V12.6863ZM13.4274 13.4812C13.4502 13.5393 13.4703 13.6806 13.4779 13.8421C13.4931 14.208 13.5284 14.2535 13.8994 14.3771C14.1013 14.4427 14.1038 14.4427 14.0962 14.5235C14.0861 14.6623 14.0533 14.6951 13.9044 14.7128C13.7404 14.733 13.642 14.7885 13.5461 14.9172C13.483 15.0005 13.4703 15.0383 13.4603 15.2352C13.4476 15.4346 13.4375 15.4623 13.3719 15.533C13.3315 15.5734 13.2861 15.6087 13.2685 15.6087C13.223 15.6087 13.1826 15.4472 13.1826 15.268C13.1826 14.9525 13.0943 14.8339 12.7839 14.7254C12.6905 14.6951 12.577 14.6446 12.529 14.6169L12.4432 14.5639L12.5366 14.4831C12.5896 14.4377 12.6653 14.3948 12.7057 14.3872C12.746 14.3797 12.8117 14.367 12.852 14.3595C12.8899 14.3494 12.9606 14.309 13.006 14.2636C13.1372 14.1374 13.1826 14.0112 13.1826 13.7689C13.1826 13.5645 13.1852 13.5569 13.2685 13.4736C13.3164 13.4257 13.3618 13.3878 13.3719 13.3878C13.3795 13.3878 13.4047 13.4307 13.4274 13.4812ZM16.8117 13.5771C16.8294 13.6125 16.842 13.6806 16.842 13.7285C16.842 13.8976 16.6275 13.9431 16.5164 13.8017C16.4483 13.7134 16.4786 13.6402 16.6149 13.5696C16.7562 13.4989 16.7764 13.4989 16.8117 13.5771ZM31.1968 13.9102C31.2725 14.0213 31.2826 14.0718 31.2397 14.1349C31.2094 14.1828 31.1791 14.1954 31.1009 14.1954C30.8813 14.1954 30.8283 13.986 31.0201 13.8825C31.116 13.8295 31.1413 13.832 31.1968 13.9102ZM10.616 14.2762C10.6388 14.2939 10.6741 14.3519 10.6968 14.4024C10.7321 14.4907 10.7321 14.4983 10.6791 14.5336C10.611 14.5816 10.4571 14.5866 10.3965 14.5412C10.3738 14.5235 10.346 14.4629 10.3384 14.4049L10.3258 14.3014L10.4343 14.2762C10.4949 14.2636 10.553 14.2509 10.5605 14.2484C10.5681 14.2459 10.5933 14.261 10.616 14.2762ZM9.15735 15.1014C9.19773 15.1822 9.18511 15.3109 9.13211 15.3563C9.11445 15.3715 9.05136 15.374 8.98322 15.3664L8.86713 15.3488V15.1898V15.0282H8.99331C9.10688 15.0282 9.12202 15.0358 9.15735 15.1014ZM33.988 16.338C34.041 16.3507 34.094 16.3709 34.1066 16.3835C34.1394 16.4188 34.1747 16.7494 34.152 16.8428C34.1167 17.0018 33.988 17.0447 33.7003 16.9967C33.5312 16.969 33.5211 16.9614 33.4858 16.8781C33.4328 16.7494 33.4378 16.5727 33.4984 16.4718C33.5842 16.333 33.7583 16.285 33.988 16.338ZM11.0602 16.7974C11.3151 16.8554 11.57 17.0573 11.6861 17.297C11.7492 17.4232 11.7568 17.4661 11.7568 17.6907C11.7568 17.9128 11.7492 17.9608 11.6886 18.087C11.5952 18.2914 11.4236 18.4655 11.2369 18.5488C11.093 18.6119 11.0627 18.6169 10.8255 18.6068C10.4116 18.5867 10.1517 18.4504 10.0104 18.1728C9.91951 17.9986 9.89932 17.6731 9.96493 17.4359C10.1063 16.9109 10.5151 16.6737 11.0602 16.7974ZM8.06207 17.5267L8.20592 17.5595L8.23368 17.7311C8.27658 17.9936 8.26901 18.0668 8.19582 18.1551C8.03431 18.3494 7.6608 18.299 7.56742 18.0718C7.53714 17.9986 7.53714 17.9583 7.56742 17.7791C7.58761 17.663 7.6078 17.5671 7.61033 17.5646C7.63052 17.5469 7.87279 17.4813 7.8955 17.4863C7.91065 17.4914 7.98383 17.509 8.06207 17.5267ZM39.0253 18.8516V19.0157H38.9117C38.831 19.0157 38.783 19.0005 38.7477 18.9652C38.7123 18.9299 38.6972 18.8819 38.6972 18.8012V18.6876H38.8612H39.0253V18.8516ZM35.2801 18.9021C35.3836 19.1545 35.2397 19.2933 35.0202 19.152C34.9445 19.104 34.947 19.0132 35.0252 18.94C35.0782 18.892 35.1792 18.8315 35.2347 18.8163C35.2397 18.8138 35.2599 18.8542 35.2801 18.9021ZM10.7473 19.4346C10.8255 19.5078 10.828 19.5961 10.7549 19.6643C10.669 19.7425 10.5908 19.7577 10.5201 19.7122C10.4697 19.6794 10.4571 19.6491 10.4571 19.5608C10.4571 19.4699 10.4697 19.4397 10.5252 19.3993C10.6034 19.3438 10.6564 19.3513 10.7473 19.4346ZM8.99331 19.745V19.8662L8.88732 19.8813C8.79142 19.8965 8.77123 19.8889 8.72328 19.8308C8.6728 19.7677 8.6728 19.7577 8.70561 19.692C8.73842 19.6289 8.75608 19.6214 8.86713 19.6214H8.99331V19.745ZM7.1384 19.9797C7.15858 20.0529 7.17625 20.1993 7.17625 20.3078C7.17625 20.5249 7.21158 20.6233 7.30748 20.6864C7.3731 20.7293 7.61285 20.8176 7.77689 20.858C7.87531 20.8832 7.88289 20.8908 7.88289 20.9741C7.88289 21.07 7.88793 21.0674 7.6608 21.1129C7.57247 21.128 7.46648 21.1684 7.42357 21.1962C7.27467 21.2971 7.24944 21.3577 7.22925 21.6504C7.21411 21.8599 7.19896 21.9356 7.15858 21.9886C7.09549 22.0744 7.05511 22.0744 6.99202 21.9886C6.95417 21.9356 6.9365 21.8624 6.92388 21.6933C6.89864 21.3299 6.78255 21.2063 6.39138 21.1179L6.21472 21.0801L6.22229 20.9766C6.22987 20.8756 6.22987 20.8756 6.38129 20.8327C6.58823 20.7747 6.7876 20.6687 6.8406 20.5879C6.87845 20.5324 6.8835 20.4769 6.87845 20.2977C6.87341 20.164 6.8835 20.0529 6.90117 20.0201C6.94407 19.9368 7.05511 19.8233 7.07783 19.8384C7.09045 19.846 7.11568 19.9091 7.1384 19.9797ZM38.5559 20.116C38.6064 20.1665 38.6064 20.2599 38.5584 20.3532C38.5029 20.4592 38.3691 20.4592 38.2959 20.3558C38.2253 20.2573 38.2303 20.1917 38.3086 20.1286C38.3893 20.0655 38.5004 20.0605 38.5559 20.116ZM39.9792 21.0801C40.0171 21.1305 40.0171 21.1911 39.9792 21.2744C39.954 21.3299 39.9363 21.3375 39.8152 21.3375H39.6814V21.2163C39.6814 21.1129 39.6915 21.0927 39.7521 21.0574C39.8278 21.0094 39.9313 21.022 39.9792 21.0801ZM32.8851 25.1634C32.9306 25.3603 32.9962 25.4259 33.1754 25.4486C33.299 25.4637 33.3091 25.4688 33.3015 25.5268C33.2864 25.6328 33.2233 25.7035 33.0845 25.764C32.9306 25.8322 32.8851 25.9129 32.8549 26.1754C32.8397 26.3218 32.8321 26.3344 32.7766 26.3344C32.7287 26.3344 32.7135 26.3142 32.6908 26.2259C32.6176 25.9357 32.5798 25.8776 32.3526 25.6959C32.3022 25.6555 32.2618 25.6126 32.2618 25.6025C32.2618 25.5924 32.3123 25.5521 32.3703 25.5192C32.5369 25.4208 32.653 25.277 32.6908 25.1256C32.7186 25.0069 32.7287 24.9943 32.7867 25.0019C32.8448 25.0095 32.8549 25.0271 32.8851 25.1634ZM13.7151 25.3224C13.7606 25.3577 13.7757 25.4032 13.7909 25.542C13.811 25.7464 13.8716 25.817 14.0533 25.8423C14.1593 25.8599 14.1669 25.865 14.1669 25.9407C14.1669 26.0442 14.1517 26.0618 14.0104 26.13C13.8539 26.2032 13.7984 26.2764 13.7782 26.4379C13.7404 26.7155 13.6621 26.7205 13.5612 26.448C13.4855 26.241 13.3997 26.1502 13.2331 26.0947C13.1296 26.0593 13.1069 26.0417 13.1069 25.9937C13.1069 25.9432 13.1271 25.9281 13.2028 25.9054C13.4375 25.8423 13.5486 25.701 13.5763 25.4309C13.594 25.2618 13.6192 25.2442 13.7151 25.3224ZM38.5761 31.0865C38.5937 31.3086 38.6467 31.3944 38.8057 31.4726C38.9168 31.5231 39.0253 31.6342 39.0253 31.6922C39.0253 31.6998 38.9698 31.725 38.9041 31.7452C38.7073 31.8108 38.6114 31.9395 38.5735 32.1894C38.5609 32.2878 38.5508 32.3029 38.4978 32.3029C38.4448 32.3029 38.4297 32.2802 38.3767 32.1162C38.2934 31.8613 38.2581 31.8133 38.1369 31.7957C38.0814 31.7856 38.0032 31.7503 37.9628 31.7174C37.8947 31.6594 37.8921 31.6518 37.9275 31.5988C37.9704 31.5332 38.0486 31.4928 38.1773 31.4676C38.2884 31.4474 38.3086 31.4171 38.3313 31.2077C38.3515 31.0335 38.4221 30.9275 38.5155 30.9275C38.5559 30.9275 38.566 30.9502 38.5761 31.0865ZM7.45133 31.0916C7.54471 31.1395 7.55481 31.1698 7.55481 31.4171C7.55481 31.5913 7.5649 31.6417 7.61285 31.7124C7.67847 31.8159 7.95355 31.9622 8.07469 31.9622C8.13273 31.9622 8.17059 31.9799 8.20844 32.0279C8.23873 32.0657 8.26144 32.1036 8.26144 32.1162C8.26144 32.1641 8.09992 32.2449 7.95355 32.2701C7.7567 32.3029 7.69613 32.3408 7.63052 32.4645C7.59014 32.5477 7.52957 32.8884 7.52957 33.0525C7.52957 33.0903 7.50685 33.0979 7.40591 33.0979H7.28477L7.2671 32.8758C7.23177 32.4518 7.14092 32.3156 6.86836 32.2802C6.73208 32.26 6.58571 32.1894 6.56299 32.1288C6.55037 32.096 6.61599 32.0203 6.68918 31.9774C6.70684 31.9673 6.79265 31.9471 6.87593 31.9345C6.96174 31.9219 7.05259 31.8991 7.07783 31.884C7.17373 31.8335 7.22925 31.667 7.25953 31.354C7.28982 31.0234 7.29991 31.0108 7.45133 31.0916ZM10.9492 31.8462C11.0072 31.9042 11.0627 32.0531 11.0627 32.1566C11.0627 32.255 11.0148 32.3408 10.9315 32.3938C10.8255 32.4594 10.5858 32.4468 10.4848 32.3711C10.3435 32.2676 10.4091 31.9547 10.5959 31.8361C10.7069 31.7654 10.8709 31.7679 10.9492 31.8462ZM35.7167 32.419C35.9943 32.4821 36.2871 32.6941 36.4133 32.9238C36.4814 33.05 36.489 33.0853 36.4965 33.3578C36.5066 33.6506 36.5041 33.6607 36.4284 33.8172C36.335 34.0064 36.1609 34.173 35.9514 34.2765C35.8227 34.3396 35.7823 34.3471 35.5678 34.3446C35.2726 34.3421 35.0959 34.2815 34.9142 34.1175C34.3943 33.6506 34.6113 32.6335 35.2726 32.4266C35.4013 32.3862 35.5678 32.3837 35.7167 32.419ZM9.51319 33.9358C9.56871 33.9963 9.63938 34.0872 9.67219 34.1402L9.73275 34.2386L9.546 34.4254C9.44505 34.5288 9.34158 34.6121 9.31887 34.6121C9.23054 34.6121 9.0665 34.4582 9.00088 34.3143C8.9277 34.1478 8.93779 34.115 9.12202 33.9433C9.28858 33.7894 9.37691 33.7869 9.51319 33.9358ZM12.4886 34.2361C12.5517 34.2664 12.6577 34.3497 12.7259 34.4254C12.8924 34.6071 12.9606 34.7913 12.9656 35.0538C12.9681 35.2279 12.958 35.2759 12.8975 35.3995C12.8041 35.5888 12.6602 35.7099 12.4558 35.773C12.0142 35.9093 11.628 35.768 11.4615 35.4071C11.4135 35.3036 11.4034 35.238 11.4034 35.0412C11.4034 34.8317 11.4135 34.7837 11.4741 34.65C11.6684 34.2336 12.105 34.0544 12.4886 34.2361ZM38.3086 34.2437C38.3868 34.3219 38.3944 34.3446 38.3944 34.4733C38.3944 34.5995 38.3843 34.6247 38.3187 34.6929C38.2455 34.7661 38.2328 34.7686 38.0638 34.7585C37.9451 34.7534 37.8795 34.7358 37.8619 34.7131C37.8492 34.6929 37.8417 34.5743 37.8442 34.4481C37.8518 34.2361 37.8543 34.221 37.9149 34.1907C37.9502 34.173 38.0335 34.1579 38.1016 34.1579C38.2051 34.1579 38.2354 34.1705 38.3086 34.2437ZM33.6498 35.768C33.6498 35.8765 33.6675 36.0304 33.6877 36.1137C33.7558 36.3737 33.8719 36.4746 34.1697 36.5352L34.311 36.5629L34.2959 36.6513C34.2782 36.7674 34.2227 36.8229 34.1041 36.8431C33.9678 36.8658 33.8012 36.9995 33.7281 37.1459C33.6826 37.2393 33.6624 37.3251 33.6549 37.4816L33.6422 37.691H33.5489H33.4555L33.4403 37.5194C33.4151 37.2494 33.3571 37.098 33.2385 36.9743C33.1375 36.8683 32.9659 36.7901 32.9129 36.8229C32.8523 36.8607 32.769 36.8052 32.7438 36.7118C32.7034 36.5705 32.706 36.5629 32.8372 36.5427C32.9886 36.52 33.1426 36.4519 33.2132 36.3762C33.2965 36.2853 33.3394 36.1591 33.3848 35.8841C33.4378 35.556 33.4303 35.5711 33.5489 35.5711H33.6498V35.768ZM9.80089 35.8942C9.93213 36.0279 9.96746 36.303 9.86903 36.4191C9.79837 36.4998 9.59647 36.5301 9.47029 36.4797C9.38448 36.4443 9.31634 36.3207 9.33401 36.2374C9.33906 36.2121 9.35168 36.1465 9.35925 36.0935C9.36682 36.0405 9.4072 35.9598 9.45262 35.9118C9.55357 35.7932 9.69238 35.7882 9.80089 35.8942ZM36.8473 36.5528C36.8776 36.6664 36.87 36.9693 36.8322 37.0551C36.7943 37.1484 36.6909 37.2115 36.5849 37.2115C36.4082 37.209 36.1735 37.0248 36.1735 36.8885C36.176 36.8506 36.1887 36.7472 36.2063 36.6563L36.2366 36.4948L36.3729 36.4544C36.4965 36.4166 36.5218 36.4166 36.6707 36.4519C36.807 36.4847 36.8347 36.4998 36.8473 36.5528ZM14.9391 36.8254C14.9997 36.9617 15.0981 37.0475 15.2344 37.0778C15.295 37.0904 15.3025 37.103 15.3025 37.1863C15.3025 37.2797 15.3025 37.2797 15.1814 37.2973C14.9972 37.32 14.9543 37.363 14.9341 37.5396C14.9189 37.6885 14.8685 37.7642 14.7675 37.7996C14.7322 37.8122 14.7221 37.7895 14.707 37.6708C14.6817 37.4513 14.6388 37.373 14.5 37.2872C14.4319 37.2469 14.3637 37.1838 14.3486 37.151C14.3234 37.0929 14.3259 37.0879 14.4167 37.0727C14.5379 37.0525 14.6111 36.9869 14.6741 36.8405C14.7019 36.7775 14.7473 36.6916 14.7776 36.6487L14.8331 36.573L14.8559 36.6336C14.871 36.6664 14.9063 36.7547 14.9391 36.8254ZM31.0656 36.679C31.1539 36.7346 31.1842 36.8128 31.1564 36.9213C31.1387 36.9869 31.1236 36.997 31.0327 37.0046C30.9495 37.0096 30.9217 37.0021 30.8889 36.9541C30.8132 36.8481 30.8561 36.6311 30.9495 36.6311C30.9697 36.6311 31.0226 36.6538 31.0656 36.679ZM12.5214 37.3428C12.6804 37.4917 12.6981 37.7743 12.5542 37.8854C12.4205 37.9888 12.1757 37.9737 12.0546 37.8525C11.999 37.7945 11.9915 37.7718 12.0016 37.6431C12.0142 37.474 12.0874 37.3503 12.2085 37.2973C12.3094 37.2519 12.4407 37.2696 12.5214 37.3428ZM10.8432 37.8854C10.8735 37.903 10.8508 38.1402 10.8179 38.1731C10.8053 38.1857 10.7372 38.2033 10.6665 38.2134C10.5277 38.2286 10.5328 38.2336 10.4949 38.0494C10.4823 37.9914 10.4899 37.9459 10.5201 37.9005C10.5605 37.8425 10.5731 37.8374 10.6918 37.8525C10.7624 37.8626 10.8306 37.8778 10.8432 37.8854ZM30.3589 38.221C30.8738 38.3522 31.323 38.7358 31.5299 39.2204C31.6864 39.5813 31.7242 40.0911 31.6309 40.4923C31.5451 40.8431 31.4037 41.1005 31.1514 41.3504C30.846 41.6583 30.5431 41.8047 30.1116 41.8526C29.839 41.8829 29.2561 41.8147 28.9835 41.7188C28.6756 41.6129 28.6731 41.6129 28.3122 41.9636C28.2012 42.0722 28.0018 42.2488 27.8706 42.3548C27.7393 42.4608 27.5399 42.6324 27.4314 42.7334C27.015 43.1119 26.5986 43.2179 26.4447 42.9807C26.3866 42.8924 26.4043 42.6879 26.485 42.5239C26.5507 42.3902 26.6541 42.2842 27.5299 41.464C27.8075 41.204 28.0472 40.9668 28.0649 40.9365C28.1078 40.8608 28.1053 40.6791 28.0573 40.462C27.9942 40.1895 27.9942 39.662 28.0573 39.4829C28.2844 38.8216 28.8901 38.2891 29.5438 38.1705C29.7255 38.1377 30.1318 38.163 30.3589 38.221ZM17.0944 39.0185C17.1575 39.0488 17.3114 39.1548 17.4351 39.2557C17.7833 39.5384 17.8086 39.5459 18.3184 39.5459C18.5556 39.5459 19.078 39.5359 19.4793 39.5232C20.5544 39.4929 20.8597 39.551 20.9884 39.8185C21.0717 39.9876 20.9884 40.2072 20.8017 40.3031C20.5796 40.4191 20.5039 40.4242 19.189 40.4267L17.9398 40.4292L17.7909 40.4999C17.69 40.5453 17.5688 40.6412 17.4124 40.7927C17.2862 40.9163 17.1448 41.0349 17.0994 41.0576C16.9758 41.1207 16.6174 41.1586 16.4584 41.1258C16.1959 41.0677 16.0067 40.934 15.6786 40.5756C15.5196 40.3964 15.4565 40.3863 14.7196 40.4166C13.9069 40.4494 13.483 40.4469 13.2508 40.404C12.8924 40.3409 12.7284 40.2147 12.7284 40.0053C12.7284 39.8589 12.794 39.7428 12.9227 39.6671C13.1397 39.5409 13.2609 39.5258 13.9524 39.5359C14.3006 39.5409 14.7776 39.5459 15.0123 39.5459C15.5701 39.5459 15.6306 39.5258 15.9158 39.2582C16.2237 38.968 16.2616 38.9529 16.6906 38.9604C16.9202 38.9655 17.0035 38.9781 17.0944 39.0185ZM34.518 39.0589C34.5684 39.1321 34.5684 39.2406 34.518 39.2911C34.4675 39.3441 34.359 39.3415 34.2858 39.286C34.2353 39.2456 34.2277 39.2229 34.2404 39.127C34.2454 39.0664 34.253 39.0134 34.253 39.0084C34.2555 39.0059 34.306 39.0034 34.3665 39.0034C34.4549 39.0034 34.4877 39.016 34.518 39.0589ZM26.369 39.392C26.4548 39.4172 26.4724 39.4349 26.5002 39.5207C26.538 39.6545 26.538 39.7958 26.5002 39.9497C26.4674 40.0759 26.4649 40.0759 26.3261 40.1113C26.21 40.1415 26.162 40.1415 26.0308 40.1138L25.8768 40.081L25.839 39.9548C25.791 39.7933 25.791 39.7024 25.839 39.5434C25.8743 39.4248 25.8844 39.4147 25.9954 39.3769C26.1166 39.3365 26.1822 39.339 26.369 39.392ZM32.6832 40.0406C32.8473 40.1012 32.9154 40.24 32.822 40.3232C32.7438 40.3964 32.658 40.4141 32.5848 40.3762C32.5242 40.3434 32.5142 40.3232 32.5142 40.2273C32.5142 40.1213 32.5545 40.0128 32.5949 40.0128C32.605 40.0128 32.6429 40.0254 32.6832 40.0406ZM18.0988 42.0722C18.1493 42.0873 18.1543 42.1025 18.1543 42.2488V42.4103H18.0408C17.8994 42.4103 17.8363 42.3346 17.8591 42.1908C17.8818 42.0646 17.9449 42.0318 18.0988 42.0722ZM20.1909 42.3624C20.2894 42.4002 20.2995 42.423 20.2995 42.6526C20.2995 42.8924 20.302 42.8898 20.0572 42.8898C19.8528 42.8898 19.7569 42.8444 19.719 42.7283C19.6862 42.6223 19.7417 42.4608 19.8402 42.3851C19.9108 42.3296 20.0749 42.317 20.1909 42.3624Z" fill="white"/>
<path d="M30.3816 11.0635C29.9475 11.1746 29.9021 11.7273 30.3109 11.9342C30.4245 11.9922 30.6315 11.9847 30.7652 11.9216C30.8813 11.8661 30.9797 11.7273 31.0125 11.5784C31.0453 11.4143 30.9318 11.1872 30.7728 11.1039C30.687 11.0585 30.48 11.0383 30.3816 11.0635Z" fill="white"/>
<path d="M16.2893 11.0661C16.0849 11.1165 15.9839 11.2654 15.9839 11.5203C15.9839 11.7348 16.0395 11.8434 16.1858 11.9165C16.3726 12.0124 16.6553 11.9822 16.7991 11.8535C16.9228 11.7424 16.9758 11.5128 16.9152 11.3512C16.8824 11.2654 16.7764 11.1493 16.6881 11.1039C16.6023 11.0585 16.3953 11.0383 16.2893 11.0661Z" fill="white"/>
<path d="M29.6043 39.1043C29.3216 39.1775 29.0592 39.4122 28.9532 39.6898C28.8648 39.9245 28.8699 40.1996 28.9683 40.404C29.0541 40.5857 29.2535 40.7901 29.4125 40.8633C29.738 41.0173 30.2453 40.9264 30.528 40.669C30.7172 40.4949 30.803 40.3031 30.8005 40.0431C30.8005 39.6444 30.5986 39.3213 30.2503 39.1624C30.0964 39.0917 29.7734 39.0614 29.6043 39.1043Z" fill="white"/>
<path d="M23.0503 14.1854C21.0742 14.2939 19.7897 14.5765 18.9038 15.0964C18.7953 15.1595 18.7146 15.2201 18.7272 15.2302C18.7373 15.2403 18.9972 15.3034 19.3026 15.369C20.302 15.581 20.8521 15.7425 21.3821 15.9873C21.5285 16.0554 21.9954 16.2977 22.4194 16.5248L23.1866 16.9387L23.29 16.9034C23.391 16.8706 23.5222 16.7999 24.4509 16.2901C25.1046 15.9292 25.5159 15.7677 26.4648 15.4926C26.8409 15.3841 27.492 15.2302 27.5778 15.2302C27.6156 15.2302 27.5854 15.1696 27.492 15.0687C27.1891 14.7406 26.1721 14.4302 24.779 14.2434C24.4131 14.1929 23.4692 14.1627 23.0503 14.1854ZM23.4086 14.9147C23.555 15.0308 23.7317 15.2579 23.7317 15.3337C23.7317 15.3589 23.7039 15.3841 23.6686 15.3917C23.6358 15.3993 23.5399 15.4699 23.4591 15.5456C23.3758 15.6214 23.2976 15.6844 23.285 15.6844C23.2522 15.6844 22.9922 15.5002 22.8585 15.3841L22.755 15.2933L22.9821 15.0485C23.1083 14.9122 23.2219 14.8012 23.237 14.8012C23.2522 14.8012 23.3304 14.8516 23.4086 14.9147Z" fill="white"/>
<path d="M36.3325 15.3816C36.2139 15.4093 36.1382 15.4674 36.07 15.5759C35.9867 15.7071 35.9842 16.0024 36.0625 16.1488C36.1457 16.3103 36.224 16.3532 36.4259 16.3507C36.8625 16.3456 37.077 16.0226 36.8852 15.6566C36.7767 15.4472 36.542 15.3311 36.3325 15.3816Z" fill="white"/>
<path d="M17.3846 16.2573C17.2079 16.2825 16.8899 16.3759 16.6779 16.4592C16.0041 16.7267 15.4489 17.1911 15.2091 17.6908C15.083 17.9583 15.0905 17.9684 15.3227 17.8573C15.7997 17.6226 16.4382 17.4409 17.1196 17.345C17.4325 17.3021 18.5404 17.3021 18.8483 17.345C19.4616 17.4334 20.037 17.5898 20.471 17.7867C20.6326 17.8599 20.7941 17.933 20.8244 17.9457C20.8849 17.9684 20.8824 17.9709 20.7411 18.1703C20.4786 18.5413 20.2969 18.6876 20.1076 18.6876C20.0572 18.6876 19.8654 18.6271 19.666 18.5488C19.0224 18.2914 18.6187 18.2207 17.8893 18.2409C17.3492 18.2536 17.1019 18.2914 16.5795 18.4378C16.2161 18.5413 15.3606 18.8668 15.1435 18.9829C14.9871 19.0687 14.8836 19.1873 14.8457 19.3236C14.8129 19.4447 14.8306 20.376 14.876 20.8302C14.9517 21.6101 15.1511 22.3672 15.5751 23.4953C15.6786 23.7729 15.8123 24.1464 15.8729 24.3281C15.9688 24.6158 15.989 24.6562 16.0394 24.6637C16.0924 24.6713 16.1076 24.6511 16.1606 24.5249C16.4533 23.8208 18.013 21.6479 18.924 20.6788C19.0477 20.5451 19.2698 20.3104 19.4136 20.1539C19.5575 19.9999 19.772 19.7905 19.8931 19.6895C20.0117 19.5886 20.2288 19.3943 20.3751 19.2555C20.8168 18.8365 21.0666 18.6245 21.6749 18.1703C21.9954 17.9305 22.2755 17.711 22.3007 17.6832C22.3436 17.6352 22.3436 17.6252 22.3108 17.5772C22.0938 17.2693 20.9909 16.7797 19.8225 16.4769C19.0881 16.2876 18.866 16.2573 18.1291 16.2497C17.7606 16.2472 17.4275 16.2497 17.3846 16.2573ZM18.3436 19.1469C18.4142 19.21 18.4496 19.3488 18.4218 19.4548C18.4142 19.4876 18.3764 19.5507 18.341 19.5936C18.2855 19.6593 18.2578 19.6719 18.1644 19.6719C17.9019 19.6719 17.753 19.4599 17.8615 19.2454C17.9398 19.0965 18.2174 19.0409 18.3436 19.1469ZM16.6275 19.904C16.6477 19.9772 16.6653 20.0883 16.6653 20.1564C16.6653 20.4037 16.7612 20.5097 17.054 20.5829C17.1675 20.6107 17.1701 20.6132 17.1701 20.7091C17.1701 20.7949 17.1625 20.8075 17.1019 20.8227C16.8142 20.8832 16.7133 20.9791 16.6552 21.2517C16.5896 21.552 16.5795 21.5722 16.5063 21.5924C16.4685 21.6025 16.4331 21.6 16.4256 21.5874C16.418 21.5773 16.3877 21.4511 16.3625 21.3097C16.2969 20.964 16.2287 20.8757 15.9763 20.8227L15.9082 20.8075L15.9461 20.7142C15.9688 20.6612 16.047 20.5653 16.1202 20.4996C16.2262 20.4063 16.2741 20.3381 16.3347 20.1943C16.3751 20.0908 16.418 19.9596 16.4281 19.9015C16.4407 19.8258 16.4609 19.788 16.4988 19.7728C16.5719 19.7451 16.582 19.7577 16.6275 19.904Z" fill="white"/>
<path d="M27.4289 16.2573C26.5986 16.386 25.6345 16.7444 24.4686 17.3551L24.0825 17.557L24.1405 17.6201C24.1733 17.6554 24.3247 17.7791 24.4812 17.8952C25.2736 18.4832 25.9954 19.1116 26.8434 19.9495C27.4945 20.5905 27.709 20.8227 28.1607 21.3754C29.1021 22.5262 30.003 23.788 30.2756 24.3331C30.3866 24.5603 30.4094 24.5905 30.4548 24.5779C30.4851 24.5704 30.528 24.5426 30.5557 24.5174C30.6012 24.4745 30.8611 23.7931 31.0882 23.1218C31.4163 22.1577 31.6005 21.07 31.646 19.8359C31.6611 19.3867 31.6611 19.3816 31.6005 19.2933C31.3734 18.9602 30.4825 18.5438 29.6321 18.3747C29.1753 18.2813 28.9406 18.2586 28.4813 18.2586C27.8554 18.2586 27.4642 18.3293 26.7071 18.5766C26.3361 18.6977 26.2226 18.7103 26.1393 18.6422C26.0762 18.5917 25.786 18.1627 25.7506 18.0668C25.7128 17.9734 25.7405 17.9128 25.8465 17.8447C26.0282 17.7337 26.5557 17.5595 27.0907 17.4409C27.5601 17.3374 27.9387 17.2971 28.4762 17.2971C29.357 17.2971 29.8541 17.3955 30.8384 17.7665C31.1867 17.8977 31.4794 18.0062 31.4895 18.0062C31.5173 18.0062 31.3734 17.7564 31.2169 17.5267C31.0554 17.2895 30.7072 16.9236 30.5078 16.7822C30.1797 16.5501 29.7986 16.3986 29.309 16.3103C29.0668 16.2674 28.8951 16.2573 28.2617 16.2523C27.8453 16.2472 27.4718 16.2497 27.4289 16.2573ZM28.2617 19.4119C28.2516 19.4851 28.2238 19.5507 28.1936 19.576C28.1355 19.629 27.9639 19.6365 27.9286 19.5886C27.8831 19.5331 27.8705 19.4245 27.9008 19.3589C27.926 19.2984 27.9412 19.2933 28.1027 19.2933H28.2768L28.2617 19.4119ZM29.9904 19.6441C30.1671 19.7375 30.2453 20.0252 30.1444 20.1917C30.0813 20.2977 29.9526 20.3381 29.7532 20.3205C29.5437 20.3003 29.5286 20.2927 29.4907 20.1766C29.4453 20.0302 29.4529 19.9242 29.5185 19.7981C29.6119 19.6113 29.8112 19.5457 29.9904 19.6441ZM30.3665 21.7691C30.4043 21.8751 30.4018 21.9735 30.3614 22.029C30.3337 22.0669 30.316 22.0694 30.2075 22.0416C30.0712 22.0088 30.0535 21.981 30.0762 21.8549C30.0889 21.7943 30.1166 21.7539 30.162 21.7287C30.2756 21.6681 30.3362 21.6807 30.3665 21.7691Z" fill="white"/>
<path d="M22.9493 18.4024C22.76 18.5034 22.008 19.0838 21.7051 19.3665C21.6042 19.4573 21.319 19.7097 21.0692 19.9242C20.4988 20.4138 20.2363 20.6637 20.0269 20.9211C19.936 21.0321 19.7568 21.2315 19.6307 21.3627C19.0855 21.9356 18.2931 22.9703 17.4931 24.1514C16.8798 25.0574 16.582 25.595 16.582 25.7918C16.582 25.9786 16.8142 26.4076 17.3543 27.2177C18.0533 28.265 19.2698 29.8802 19.7291 30.3723C19.825 30.4758 20.2641 30.8846 21.6572 32.1692C21.849 32.3458 22.4017 32.7724 22.7045 32.9768C22.9846 33.166 23.2446 33.2998 23.3329 33.2998C23.4187 33.2998 23.5929 33.1812 24.2414 32.679C25.0364 32.0632 25.3468 31.7906 26.1166 31.0184C27.2724 29.86 27.8604 29.1307 28.9052 27.5559C29.6926 26.3697 29.9652 25.9104 29.9652 25.759C29.9652 25.5142 29.256 24.4341 28.0775 22.8845C27.0049 21.4738 26.3084 20.7318 24.7285 19.3312C24.0572 18.7356 23.7544 18.4958 23.5424 18.3923C23.3026 18.2788 23.184 18.2788 22.9493 18.4024ZM23.3531 20.2069C23.3531 20.4845 23.4616 20.6309 23.7392 20.7293C23.8326 20.7621 23.9159 20.7999 23.9235 20.8126C23.9487 20.8504 23.7796 21.0094 23.714 21.0094C23.6459 21.0094 23.4919 21.1406 23.4389 21.2416C23.4162 21.287 23.4061 21.3451 23.4162 21.3854C23.4288 21.441 23.4162 21.4763 23.3657 21.5343C23.3077 21.6025 23.2925 21.61 23.2496 21.5823C23.1865 21.5444 23.126 21.4132 23.126 21.3173C23.126 21.2063 23.0275 21.1028 22.8433 21.0246C22.6036 20.9211 22.5708 20.9034 22.5708 20.8731C22.5708 20.8327 22.7272 20.6813 22.7701 20.6813C22.7903 20.6813 22.8559 20.6586 22.9165 20.6283C23.0477 20.5652 23.1512 20.4062 23.1512 20.27C23.1512 20.1741 23.2193 20.1009 23.3077 20.1009C23.343 20.1009 23.3531 20.1211 23.3531 20.2069ZM21.7783 21.4182C21.8566 21.494 21.8843 21.658 21.8389 21.7665C21.7859 21.8927 21.7001 21.9432 21.5386 21.9432C21.3266 21.9432 21.2988 21.9129 21.2887 21.6681C21.2786 21.4763 21.2812 21.4637 21.3468 21.3981C21.4073 21.3375 21.4275 21.3324 21.5638 21.3425C21.6824 21.3501 21.7278 21.3678 21.7783 21.4182ZM19.8906 22.9274C20.0849 23.046 19.8956 23.3388 19.6937 23.2303C19.5978 23.1773 19.6029 22.9552 19.7013 22.9072C19.7796 22.8694 19.7972 22.8719 19.8906 22.9274ZM23.7317 22.9905C24.0951 23.046 24.3197 23.1167 24.6528 23.2807C25.4402 23.6643 25.9399 24.3205 26.1367 25.224C26.1796 25.4183 26.1897 25.5521 26.1897 25.918C26.1872 26.3268 26.1822 26.3975 26.1216 26.6246C25.9525 27.2631 25.4907 27.9294 24.9557 28.3079C23.5676 29.2897 21.526 28.848 20.6729 27.3792C20.5518 27.1697 20.4155 26.8215 20.3575 26.5742C20.2893 26.2713 20.2944 25.5016 20.3676 25.1836C20.6174 24.1161 21.3367 23.3665 22.4067 23.0637C22.7928 22.9552 23.3127 22.9249 23.7317 22.9905ZM27.1235 23.0561C27.1841 23.1041 27.1891 23.1217 27.1891 23.3186C27.1891 23.4751 27.179 23.5356 27.1513 23.5583C27.0957 23.6063 26.8812 23.6189 26.7752 23.5836C26.5607 23.5129 26.5506 23.1747 26.7576 23.046C26.8535 22.9855 27.0402 22.9905 27.1235 23.0561ZM19.0073 24.6334C19.0754 24.7117 19.0754 24.7167 19.0048 24.8227C18.9417 24.9161 18.8811 24.9363 18.7776 24.8984C18.7146 24.8732 18.7095 24.8606 18.7095 24.7344C18.7095 24.6284 18.7196 24.588 18.7549 24.5678C18.8205 24.53 18.9417 24.5602 19.0073 24.6334ZM28.1103 25.436C28.186 25.4688 28.1986 25.4864 28.1986 25.5596C28.1986 25.6782 28.2895 25.8044 28.4308 25.8801C28.5519 25.9458 28.6529 26.0265 28.6529 26.0568C28.6529 26.0669 28.5645 26.1047 28.4585 26.1376C28.2667 26.2006 28.2617 26.2032 28.244 26.2991C28.2062 26.4959 28.1431 26.713 28.1229 26.713C28.0825 26.713 27.9967 26.5792 27.9715 26.4757C27.9563 26.4202 27.9311 26.3395 27.9159 26.3016C27.8857 26.2234 27.7469 26.1199 27.6358 26.0947C27.545 26.0719 27.5323 26.0467 27.5778 25.9609C27.6055 25.9104 27.6585 25.87 27.757 25.8297C27.9134 25.7666 27.9614 25.701 27.9891 25.5142C27.9967 25.4511 28.0093 25.4006 28.0144 25.4006C28.0194 25.4006 28.0623 25.4183 28.1103 25.436ZM18.7045 26.1855C18.7524 26.2032 18.76 26.2259 18.76 26.3319V26.4581L18.6414 26.4959C18.5278 26.5287 18.5177 26.5287 18.4773 26.4808C18.4243 26.4202 18.4168 26.2562 18.4647 26.183C18.495 26.13 18.5581 26.13 18.7045 26.1855ZM27.2345 27.4574C27.2522 27.4928 27.2648 27.5685 27.2648 27.6215V27.7224H27.1412C26.9998 27.7224 26.9696 27.6972 26.9468 27.5534C26.9317 27.4524 26.9317 27.4499 27.0276 27.4246C27.179 27.3843 27.2043 27.3893 27.2345 27.4574ZM19.7038 28.4291C19.7619 28.4493 19.7695 28.4669 19.7695 28.5805V28.7067H19.6079H19.4464L19.4288 28.6007C19.4136 28.5098 19.4187 28.4896 19.4666 28.4493C19.5297 28.3988 19.6079 28.3912 19.7038 28.4291ZM26.4396 28.7243C26.5254 28.8051 26.4724 28.9237 26.3134 29.007C26.2251 29.0524 26.1872 29.0398 26.1569 28.9565C26.0888 28.7647 26.1544 28.6411 26.3058 28.6688C26.3538 28.6789 26.4143 28.7042 26.4396 28.7243ZM23.3531 29.9256C23.3531 30.1048 23.4162 30.3092 23.4869 30.3597C23.5171 30.3799 23.5853 30.4102 23.6358 30.4253C23.6862 30.4379 23.7645 30.4783 23.8074 30.5162L23.8856 30.5818L23.8301 30.6398C23.7973 30.6752 23.7291 30.713 23.6787 30.7256C23.5045 30.7736 23.3531 31.0335 23.3531 31.2859C23.3531 31.3793 23.3506 31.3818 23.2547 31.3818H23.1588L23.1436 31.1925C23.1234 30.9629 23.0831 30.8569 22.9771 30.7685C22.9014 30.7054 22.7575 30.6499 22.6667 30.6499C22.6086 30.6499 22.6111 30.6297 22.6717 30.5313C22.7146 30.4581 22.8357 30.3976 22.9392 30.3976C22.9796 30.3976 23.0679 30.2941 23.0982 30.2133C23.1134 30.1729 23.1335 30.0644 23.1411 29.966L23.1588 29.7919H23.2547H23.3531V29.9256ZM25.2206 29.9685C25.261 30.0089 25.2711 30.0518 25.2711 30.1957C25.2711 30.3673 25.2686 30.3748 25.203 30.4001C25.1626 30.4152 25.0844 30.4354 25.0238 30.4405C24.8572 30.4606 24.8168 30.4102 24.8168 30.1805C24.8168 29.9509 24.8446 29.9181 25.0339 29.9181C25.1374 29.9181 25.1828 29.9307 25.2206 29.9685Z" fill="white"/>
<path d="M22.7979 23.9217C21.9802 24.0959 21.4301 24.6259 21.2711 25.3905C21.2231 25.6278 21.2231 26.0719 21.2711 26.2839C21.372 26.7104 21.5588 27.0385 21.8793 27.3439C22.3462 27.7906 22.5582 27.884 23.1765 27.9142C23.4238 27.9269 23.5373 27.9218 23.7039 27.889C24.4181 27.7426 24.9859 27.1773 25.2005 26.3975C25.2737 26.1249 25.2812 25.5218 25.2131 25.2744C25.0339 24.6309 24.5241 24.1413 23.8402 23.9596C23.5878 23.8915 23.0377 23.8713 22.7979 23.9217ZM23.2017 24.2826C23.2118 24.2927 23.2118 24.3912 23.2017 24.4972C23.1815 24.7344 23.1512 24.7748 22.9392 24.8454C22.5708 24.9691 22.4168 25.1155 22.2553 25.5016C22.1392 25.7716 22.066 25.8549 21.9348 25.8549C21.8162 25.8549 21.7001 25.7994 21.6597 25.7237C21.6193 25.648 21.6269 25.436 21.6749 25.2997C21.7581 25.0625 21.8969 24.858 22.1266 24.6284C22.384 24.3735 22.5985 24.2473 22.8282 24.217C22.9569 24.1994 23.1613 24.2347 23.2017 24.2826Z" fill="white"/>
<path d="M3.88788 24.0404C3.86517 24.053 3.82731 24.1009 3.80208 24.1464C3.72637 24.2953 3.72637 25.0549 3.8046 25.1609C3.83236 25.1988 4.00145 25.2038 5.94469 25.2013C7.96617 25.1988 8.06207 25.1962 8.30183 25.1483C8.83685 25.0372 9.10688 25.06 9.45768 25.2442C9.66967 25.3552 9.93213 25.6076 10.0356 25.7969C10.3208 26.3319 10.2299 27.0587 9.82614 27.4726C9.48544 27.8209 9.00089 27.9269 8.39268 27.7881C8.0116 27.6997 7.74409 27.677 6.69171 27.6442C5.97498 27.6215 5.58128 27.6215 4.93774 27.6442C4.03678 27.677 3.85255 27.6947 3.81722 27.7502C3.80208 27.7704 3.79703 27.9395 3.80208 28.1515C3.81217 28.4367 3.82479 28.5553 3.87022 28.6941C3.9005 28.79 3.93836 28.8834 3.9535 28.901C3.97116 28.9187 4.11754 28.9439 4.28663 28.9591C4.70808 28.9969 8.03684 29.0196 10.0608 28.9969C11.9839 28.9767 11.8552 28.9919 11.8501 28.7673C11.8501 28.6991 11.8022 28.4568 11.7441 28.2272C11.5448 27.4221 11.5322 27.2959 11.5296 26.2713C11.5296 25.3628 11.5498 25.0549 11.6331 24.5931C11.6811 24.3382 11.671 24.1338 11.6053 24.0631C11.5599 24.0126 11.5372 24.0126 7.74661 24.0126C5.20273 24.0151 3.91817 24.0227 3.88788 24.0404Z" fill="white"/>
<path d="M34.7855 24.1994C34.7855 24.3029 34.8107 24.5678 34.841 24.7874C34.8915 25.1458 34.899 25.2871 34.899 26.1704C34.899 27.0764 34.894 27.1799 34.841 27.4701C34.6896 28.3231 34.6618 28.5073 34.6542 28.7067L34.6467 28.9187L34.7729 28.9389C35.2069 29.0045 38.677 29.0297 41.3521 28.9868C42.3111 28.9717 42.3566 28.9692 42.4247 28.9187C42.5635 28.8177 42.6115 28.6234 42.6518 28.0379C42.6644 27.8184 42.6619 27.8057 42.6014 27.7351L42.5383 27.6594L40.5597 27.6518C39.2903 27.6468 38.5231 27.6543 38.4145 27.672C38.3212 27.6846 38.1546 27.7275 38.0486 27.7628C37.7786 27.8512 37.3344 27.8739 37.1199 27.8108C36.7893 27.7149 36.5394 27.5357 36.3527 27.2531C35.9767 26.6928 36.0372 26.0164 36.5016 25.5168C36.6833 25.3224 36.8347 25.2215 37.0568 25.1458C37.2764 25.0726 37.66 25.0701 38.0915 25.1458C38.3969 25.1962 38.4776 25.1988 40.484 25.1988H42.561L42.6215 25.1357C42.6821 25.0776 42.6846 25.065 42.6846 24.7066C42.6846 24.2877 42.6569 24.1338 42.5635 24.0631C42.5029 24.0126 42.4449 24.0126 38.6442 24.0126H34.7855V24.1994Z" fill="white"/>
<path d="M1.73262 25.436C1.37173 25.5268 1.1345 25.7237 0.965413 26.0719C0.856894 26.2915 0.85437 26.3016 0.85437 26.5489C0.85437 26.7861 0.859418 26.8139 0.940176 26.9754C1.08655 27.2732 1.40454 27.5357 1.72252 27.6215C1.87899 27.6619 2.16164 27.6568 2.30802 27.6089C2.51496 27.5382 2.70676 27.3767 2.8809 27.1218C3.05503 26.8694 3.1257 26.8013 3.26198 26.7609C3.32254 26.7432 4.14527 26.7382 5.80081 26.7432L8.2488 26.7508L8.44565 26.8593C8.61726 26.9577 8.66521 26.9729 8.83682 26.983C9.01095 26.9956 9.04124 26.9906 9.11947 26.935C9.35418 26.776 9.39203 26.3546 9.18761 26.1375C9.03871 25.976 8.83682 25.9634 8.46079 26.0946L8.20337 26.183H5.70239C2.83042 26.183 3.09794 26.2082 2.91875 25.9306C2.67648 25.5647 2.45439 25.4259 2.08089 25.4107C1.9547 25.4057 1.80833 25.4158 1.73262 25.436Z" fill="white"/>
<path d="M44.0802 25.4487C43.8884 25.5143 43.7648 25.6102 43.5805 25.8398C43.4871 25.9509 43.366 26.0745 43.3105 26.1124L43.207 26.183H40.6505H38.0915L37.8719 26.0922C37.6801 26.0114 37.6322 26.0013 37.4833 26.0114C37.3495 26.019 37.299 26.0341 37.2259 26.0871C37.0088 26.2562 36.9634 26.6196 37.1401 26.8089C37.2233 26.8998 37.3748 26.9679 37.5211 26.9831C37.6423 26.9957 37.6751 26.9856 37.9022 26.8745L38.1521 26.7509L40.6 26.7433C42.2531 26.7383 43.0808 26.7433 43.1414 26.7635C43.2499 26.7938 43.3988 26.9477 43.583 27.2203C43.795 27.5282 44.0247 27.6468 44.4159 27.6468C44.802 27.6468 45.1124 27.4979 45.3219 27.2152C45.7307 26.6575 45.5742 25.8272 45.0014 25.537C44.7263 25.3982 44.3351 25.3603 44.0802 25.4487Z" fill="white"/>
<path d="M15.623 27.9294C15.4338 28.4745 15.2445 29.0524 15.2016 29.2114C15.0325 29.8625 14.8786 30.7736 14.8205 31.4802C14.7549 32.3055 14.8634 32.4746 15.671 32.8102C16.6754 33.2292 17.6067 33.378 18.5001 33.262C19.0427 33.1913 19.6458 33.0273 20.0824 32.8355L20.2212 32.7749L20.4635 33.0676C20.678 33.3276 20.784 33.4941 20.8092 33.5976C20.8143 33.6228 20.7436 33.6506 20.5846 33.6935C20.4584 33.7263 20.1278 33.8273 19.8528 33.9156C19.0578 34.173 18.755 34.2184 17.8262 34.2184C17.3265 34.2184 17.1272 34.2083 16.9303 34.1755C16.5972 34.1175 16.1555 34.0039 15.8451 33.8954C15.7063 33.8475 15.4742 33.7667 15.3303 33.7187C15.1864 33.6683 15.0628 33.6329 15.0552 33.638C15.0275 33.6658 15.3505 34.1049 15.56 34.3244C16.042 34.8267 16.5896 35.1446 17.1701 35.2532C17.5335 35.3238 18.5934 35.2961 19.2294 35.2027C19.5953 35.1497 20.0446 35.0361 20.4181 34.8998C20.7133 34.7938 21.7152 34.3774 22.0736 34.2134C22.2377 34.1402 22.3134 34.0519 22.3361 33.9206C22.3487 33.8424 22.3411 33.8298 22.2654 33.7894C21.9752 33.6405 21.2029 33.0626 20.5644 32.52C20.0345 32.0657 19.0073 31.0487 18.5556 30.5237C17.6748 29.5067 17.0565 28.6436 16.4104 27.5332C16.2111 27.1899 16.0344 26.9401 15.989 26.9401C15.9789 26.9401 15.8148 27.3868 15.623 27.9294ZM16.1707 29.4865C16.2313 29.5521 16.2514 29.6985 16.2035 29.7364C16.1858 29.754 16.1177 29.7717 16.0571 29.7793C15.8502 29.8045 15.8022 29.6884 15.9486 29.5168C16.0218 29.4285 16.1076 29.4158 16.1707 29.4865ZM16.524 30.3244C16.5821 30.3925 16.5896 30.4178 16.5745 30.5237C16.5644 30.6096 16.5694 30.6676 16.6022 30.7332C16.6679 30.872 16.7284 30.9149 16.8546 30.9074C16.9783 30.9023 17.001 30.925 17.0287 31.0815L17.0439 31.1723L16.9278 31.19C16.7764 31.2102 16.6552 31.2859 16.6048 31.3919C16.5568 31.4903 16.5139 31.7023 16.5139 31.826C16.5139 31.9093 16.5089 31.9118 16.418 31.9118H16.3221L16.2969 31.6594C16.2666 31.3641 16.2262 31.2884 16.0596 31.2279C15.9991 31.2051 15.9107 31.1421 15.8603 31.0891L15.7694 30.9906L15.8451 30.9654C15.9966 30.9149 16.1707 30.8115 16.2161 30.7509C16.2414 30.7156 16.2716 30.6222 16.2868 30.5414C16.307 30.4051 16.3903 30.2461 16.4382 30.2461C16.4483 30.2461 16.4887 30.2815 16.524 30.3244ZM18.3335 32.1919C18.3865 32.2348 18.4319 32.2828 18.4319 32.2954C18.4319 32.3433 18.3057 32.4922 18.2628 32.4922C18.2401 32.4922 18.1796 32.4796 18.124 32.4619C18.0206 32.4317 18.018 32.419 18.0685 32.2399C18.0761 32.2096 18.1922 32.1162 18.2275 32.1137C18.2325 32.1137 18.2805 32.149 18.3335 32.1919Z" fill="white"/>
<path d="M30.3766 27.0739C30.3336 27.1168 30.2706 27.2127 30.2327 27.2833C30.056 27.6392 29.092 29.1029 28.6832 29.6405C27.9639 30.5843 26.8358 31.8058 26.2175 32.3156C26.0938 32.419 25.9046 32.578 25.8011 32.6714C25.6976 32.7623 25.4478 32.9591 25.2459 33.1105C24.8118 33.4361 24.4383 33.7364 24.3045 33.8676L24.2061 33.961L24.2844 34.0418C24.4509 34.2134 24.8673 34.4279 25.6295 34.7333C26.1494 34.9427 26.4446 35.0386 26.8358 35.127C27.5551 35.286 28.668 35.3617 29.1702 35.286C30.056 35.1472 30.6441 34.7913 31.2169 34.0418C31.3431 33.8752 31.3633 33.8348 31.3734 33.7162C31.381 33.6128 31.3759 33.5774 31.3532 33.5774C31.333 33.5774 31.1968 33.6355 31.0479 33.7036C30.2832 34.0594 29.5059 34.2159 28.5267 34.2159C27.545 34.2159 26.6465 34.0342 25.9172 33.6834L25.6699 33.5648L25.8188 33.3629C25.9954 33.1257 26.2856 32.8455 26.3563 32.8455C26.3841 32.8455 26.5229 32.8859 26.6642 32.9364C27.5929 33.2594 27.7166 33.2847 28.4131 33.2847C28.827 33.2847 28.9784 33.2746 29.256 33.2266C30.3109 33.0449 31.1135 32.7522 31.4416 32.4317C31.6712 32.2071 31.6813 32.1465 31.6308 31.344C31.5652 30.3496 31.3911 29.4411 31.0529 28.366C30.7904 27.5256 30.6441 27.1698 30.5103 27.0436L30.4548 26.9906L30.3766 27.0739ZM30.321 30.3219H30.3942V30.4859V30.6499H30.2706C30.1671 30.6499 30.1418 30.6398 30.104 30.5843C30.0283 30.4682 30.1065 30.2714 30.2125 30.3092C30.2327 30.3168 30.2807 30.3219 30.321 30.3219ZM29.4226 31.3969C29.5261 31.4373 29.569 31.6821 29.5008 31.8462C29.4276 32.0203 29.2863 32.0708 29.044 32.0077L28.9305 31.9774V31.7175C28.9305 31.4802 28.9355 31.4575 28.986 31.4222C29.044 31.3818 29.3368 31.3641 29.4226 31.3969ZM28.133 32.0657C28.2516 32.1591 28.2062 32.3131 28.0447 32.3534C27.921 32.3837 27.7973 32.1566 27.8831 32.0632C27.9412 31.9976 28.0472 32.0001 28.133 32.0657Z" fill="white"/>
<path d="M23.126 34.6449C23.0629 34.6777 22.8257 34.8216 22.596 34.9629C21.9726 35.3491 21.4679 35.5787 20.6527 35.8437C19.984 36.0633 19.0628 36.2778 18.7953 36.2778C18.6893 36.2778 18.6868 36.298 18.7928 36.3964C19.7139 37.2595 23.4591 37.6355 26.003 37.1207C26.5531 37.0071 27.121 36.8002 27.4036 36.6059C27.5197 36.5251 27.7191 36.3333 27.7191 36.3005C27.7191 36.2879 27.6812 36.2778 27.6333 36.2778C27.3607 36.2778 26.5531 36.091 25.9702 35.8967C25.1045 35.6065 24.3272 35.2229 23.497 34.6828C23.3405 34.5818 23.2597 34.5718 23.126 34.6449ZM23.4944 36.0431C23.56 36.1238 23.6282 36.2273 23.6484 36.2727C23.6837 36.356 23.6812 36.3611 23.5878 36.4822C23.4944 36.6059 23.3632 36.7093 23.2622 36.7421C23.1563 36.7749 22.8786 36.5049 22.8383 36.3282C22.808 36.2021 23.1563 35.9017 23.3329 35.8992C23.3556 35.8992 23.4288 35.9648 23.4944 36.0431Z" fill="white"/>
<path d="M23.0301 41.1611C22.7575 41.2999 22.6112 41.6432 22.7298 41.8728C22.7853 41.9813 22.9317 42.0999 23.0427 42.1302C23.2673 42.1933 23.5247 42.1403 23.6484 42.004C23.8881 41.7391 23.6358 41.1536 23.2597 41.1056C23.1891 41.098 23.1285 41.1132 23.0301 41.1611Z" fill="white"/>
<path d="M76.1429 28.5476C75.9206 28.6746 75.6984 28.7381 75.4762 28.7381C75.254 28.7381 75.0397 28.6825 74.8333 28.5714C74.6429 28.4603 74.4921 28.3016 74.3809 28.0952C74.3809 28.0794 74.1984 27.754 73.8333 27.119C72.5317 27.7063 71.0397 28 69.3571 28C67.5476 28 65.9841 27.6349 64.6667 26.9048C63.3492 26.1746 62.3413 25.1667 61.6429 23.8809C60.9603 22.5794 60.619 21.0952 60.619 19.4286C60.619 17.746 60.9682 16.2619 61.6667 14.9762C62.3651 13.6746 63.3809 12.6667 64.7143 11.9524C66.0635 11.2222 67.6667 10.8571 69.5238 10.8571C71.3809 10.8571 72.9762 11.2222 74.3095 11.9524C75.6587 12.6667 76.6825 13.6746 77.3809 14.9762C78.0794 16.2619 78.4286 17.746 78.4286 19.4286C78.4286 20.6984 78.2222 21.8651 77.8095 22.9286C77.3968 23.9921 76.8016 24.8968 76.0238 25.6429C76.1032 25.7857 76.1667 25.9048 76.2143 26C76.2778 26.0794 76.3254 26.1508 76.3571 26.2143C76.5 26.4365 76.5873 26.5794 76.619 26.6429C76.7778 26.9603 76.8571 27.2381 76.8571 27.4762C76.8571 27.9206 76.619 28.2778 76.1429 28.5476ZM64.7143 23.0952C65.3809 22.4603 66.127 21.9683 66.9524 21.619C67.7778 21.254 68.6111 21.0714 69.4524 21.0714C70.373 21.0714 71.254 21.254 72.0952 21.619C72.9524 21.9841 73.6825 22.5 74.2857 23.1667C74.9206 22.1349 75.2381 20.8889 75.2381 19.4286C75.2381 17.5397 74.7143 16.0556 73.6667 14.9762C72.6349 13.8968 71.1746 13.3571 69.2857 13.3571C67.5556 13.3571 66.2063 13.9127 65.2381 15.0238C64.2857 16.119 63.8095 17.5873 63.8095 19.4286C63.8095 20.8889 64.1111 22.1111 64.7143 23.0952ZM69.5238 25.5C70.619 25.5 71.5635 25.2936 72.3571 24.8809C72.0079 24.4365 71.5794 24.0952 71.0714 23.8571C70.5794 23.6032 70.0556 23.4762 69.5 23.4762C68.9286 23.4762 68.3889 23.5952 67.8809 23.8333C67.373 24.0714 66.9444 24.4048 66.5952 24.8333C67.4365 25.2778 68.4127 25.5 69.5238 25.5ZM89.3534 28C87.8614 28 86.5518 27.6984 85.4248 27.0952C84.3137 26.4921 83.4487 25.6349 82.8296 24.5238C82.2264 23.3968 81.9248 22.0714 81.9248 20.5476V12.2857C81.9248 11.8413 82.0677 11.4921 82.3534 11.2381C82.6391 10.9841 83.0201 10.8571 83.4963 10.8571C83.9725 10.8571 84.3534 10.9921 84.6391 11.2619C84.9407 11.5159 85.0915 11.8571 85.0915 12.2857V20.619C85.0915 22.1905 85.4645 23.3968 86.2106 24.2381C86.9566 25.0794 88.028 25.5 89.4248 25.5C90.8058 25.5 91.8693 25.0794 92.6153 24.2381C93.3772 23.3809 93.7582 22.1746 93.7582 20.619V12.2857C93.7582 11.8571 93.901 11.5159 94.1868 11.2619C94.4883 10.9921 94.8772 10.8571 95.3534 10.8571C95.8296 10.8571 96.2106 10.9841 96.4963 11.2381C96.782 11.4921 96.9248 11.8413 96.9248 12.2857V20.5476C96.9248 22.0238 96.6074 23.3254 95.9725 24.4524C95.3534 25.5794 94.4725 26.4524 93.3296 27.0714C92.1868 27.6905 90.8614 28 89.3534 28ZM102.125 27.9762C101.649 27.9762 101.268 27.8492 100.983 27.5952C100.697 27.3413 100.554 26.9921 100.554 26.5476V18.2143C100.554 15.9127 101.213 14.1111 102.53 12.8095C103.848 11.5079 105.681 10.8571 108.03 10.8571C109.57 10.8571 110.903 11.1508 112.03 11.7381C113.157 12.3254 114.014 13.1746 114.602 14.2857C115.205 15.3968 115.506 16.7063 115.506 18.2143V26.5476C115.506 26.9921 115.363 27.3413 115.078 27.5952C114.792 27.8492 114.411 27.9762 113.935 27.9762C113.459 27.9762 113.07 27.8492 112.768 27.5952C112.483 27.3254 112.34 26.9762 112.34 26.5476V22.6667H103.721V26.5476C103.721 26.9762 103.57 27.3254 103.268 27.5952C102.983 27.8492 102.602 27.9762 102.125 27.9762ZM112.34 20.2143V18.1429C112.34 16.5556 111.975 15.3651 111.244 14.5714C110.53 13.7619 109.459 13.3571 108.03 13.3571C105.157 13.3571 103.721 14.9524 103.721 18.1429V20.2143H112.34ZM120.708 28C120.232 28 119.851 27.873 119.565 27.619C119.279 27.3651 119.137 27.0159 119.137 26.5714V17.5952C119.137 15.4841 119.795 13.8333 121.113 12.6429C122.43 11.4524 124.256 10.8571 126.589 10.8571C128.922 10.8571 130.748 11.4524 132.065 12.6429C133.383 13.8333 134.041 15.4841 134.041 17.5952V26.5714C134.041 27.0159 133.898 27.3651 133.613 27.619C133.327 27.873 132.946 28 132.47 28C131.994 28 131.605 27.873 131.303 27.619C131.017 27.3492 130.875 27 130.875 26.5714V17.5238C130.875 16.1746 130.51 15.1429 129.779 14.4286C129.049 13.7143 127.986 13.3571 126.589 13.3571C125.192 13.3571 124.129 13.7143 123.398 14.4286C122.668 15.1429 122.303 16.1746 122.303 17.5238V26.5714C122.303 27 122.152 27.3492 121.851 27.619C121.565 27.873 121.184 28 120.708 28ZM143.627 28C143.151 28 142.77 27.873 142.485 27.619C142.199 27.3651 142.056 27.0159 142.056 26.5714V13.5476H137.461C137 13.5476 136.635 13.4444 136.366 13.2381C136.112 13.0159 135.985 12.7143 135.985 12.3333C135.985 11.9365 136.112 11.6349 136.366 11.4286C136.619 11.2063 136.985 11.0952 137.461 11.0952H149.818C150.294 11.0952 150.659 11.2063 150.913 11.4286C151.167 11.6349 151.294 11.9365 151.294 12.3333C151.294 12.7143 151.159 13.0159 150.889 13.2381C150.635 13.4444 150.278 13.5476 149.818 13.5476H145.223V26.5714C145.223 27 145.072 27.3492 144.77 27.619C144.485 27.873 144.104 28 143.627 28ZM154.595 27.9762C154.118 27.9762 153.738 27.8492 153.452 27.5952C153.166 27.3413 153.023 26.9921 153.023 26.5476V18.2143C153.023 15.9127 153.682 14.1111 154.999 12.8095C156.317 11.5079 158.15 10.8571 160.499 10.8571C162.039 10.8571 163.372 11.1508 164.499 11.7381C165.626 12.3254 166.484 13.1746 167.071 14.2857C167.674 15.3968 167.976 16.7063 167.976 18.2143V26.5476C167.976 26.9921 167.833 27.3413 167.547 27.5952C167.261 27.8492 166.88 27.9762 166.404 27.9762C165.928 27.9762 165.539 27.8492 165.238 27.5952C164.952 27.3254 164.809 26.9762 164.809 26.5476V22.6667H156.19V26.5476C156.19 26.9762 156.039 27.3254 155.738 27.5952C155.452 27.8492 155.071 27.9762 154.595 27.9762ZM164.809 20.2143V18.1429C164.809 16.5556 164.444 15.3651 163.714 14.5714C162.999 13.7619 161.928 13.3571 160.499 13.3571C157.626 13.3571 156.19 14.9524 156.19 18.1429V20.2143H164.809Z" fill="white"/>
<path d="M62.4881 40.9524V33.1191H59.8452V32.5H65.8452V33.1191H63.1667V40.9524H62.4881ZM73.4023 37.9167C73.4023 38.0476 73.4023 38.1667 73.3904 38.2024H68.6523C68.7119 39.5238 69.6047 40.4167 70.8666 40.4167C71.7 40.4167 72.319 40.0714 72.7238 39.5476L73.1761 39.9286C72.6881 40.5833 71.9381 41.0119 70.8547 41.0119C69.1881 41.0119 68.0095 39.7857 68.0095 38.0595C68.0095 36.3452 69.2119 35.1191 70.8071 35.1191C72.3547 35.1191 73.4023 36.3095 73.4023 37.9167ZM70.8071 35.7024C69.7 35.7024 68.8309 36.4881 68.6761 37.6786H72.7714C72.6523 36.5 71.9261 35.7024 70.8071 35.7024ZM79.6641 41.0119C77.9975 41.0119 76.8427 39.7976 76.8427 38.0714C76.8427 36.3333 78.0094 35.1191 79.688 35.1191C80.5213 35.1191 81.3784 35.4405 81.938 36.0833L81.4856 36.4881C81.1046 36.0238 80.4737 35.7024 79.7118 35.7024C78.3784 35.7024 77.4856 36.6786 77.4856 38.0595C77.4856 39.4643 78.3903 40.4167 79.7118 40.4167C80.4261 40.4167 81.1165 40.1191 81.5213 39.6429L81.9499 40.0476C81.4618 40.6072 80.6761 41.0119 79.6641 41.0119ZM85.6733 40.9524V32.1905H86.3042V36.4286H86.3161C86.7447 35.6072 87.578 35.1191 88.6137 35.1191C89.8518 35.1191 90.6614 35.9048 90.6614 37.4762V40.9524H90.0304V37.6786C90.0304 36.2262 89.3637 35.7024 88.4709 35.7024C87.1495 35.7024 86.3042 36.6191 86.3042 38.0714V40.9524H85.6733ZM94.7855 40.9524V35.1786H95.4165V36.4524H95.4403C95.8689 35.6072 96.6903 35.1191 97.6784 35.1191C98.9165 35.1191 99.7141 35.9167 99.7141 37.5V40.9524H99.0831V37.7024C99.0831 36.2262 98.4165 35.7024 97.5236 35.7024C96.2617 35.7024 95.4165 36.631 95.4165 38.0833V40.9524H94.7855ZM106.388 41.0119C104.626 41.0119 103.447 39.7024 103.447 38.0714C103.447 36.4405 104.626 35.1191 106.388 35.1191C108.042 35.1191 109.328 36.3095 109.328 38.0714C109.328 39.8095 108.042 41.0119 106.388 41.0119ZM106.388 40.4167C107.673 40.4167 108.685 39.4643 108.685 38.0714C108.685 36.6548 107.661 35.7024 106.388 35.7024C105.007 35.7024 104.09 36.7619 104.09 38.0714C104.09 39.3572 105.007 40.4167 106.388 40.4167ZM113.256 40.9524V32.1905H113.887V40.9524H113.256ZM120.752 41.0119C118.99 41.0119 117.812 39.7024 117.812 38.0714C117.812 36.4405 118.99 35.1191 120.752 35.1191C122.407 35.1191 123.693 36.3095 123.693 38.0714C123.693 39.8095 122.407 41.0119 120.752 41.0119ZM120.752 40.4167C122.038 40.4167 123.05 39.4643 123.05 38.0714C123.05 36.6548 122.026 35.7024 120.752 35.7024C119.371 35.7024 118.455 36.7619 118.455 38.0714C118.455 39.3572 119.371 40.4167 120.752 40.4167ZM130.097 43.3572C129.228 43.3572 128.454 43.1548 127.728 42.7143L127.894 42.131C128.609 42.5595 129.24 42.7738 130.073 42.7738C131.525 42.7738 132.216 41.9167 132.216 40.7738V39.5357H132.204C131.787 40.3095 131.002 40.8214 129.966 40.8214C128.394 40.8214 127.156 39.7024 127.156 37.9524C127.156 36.3691 128.287 35.1191 129.942 35.1191C130.906 35.1191 131.74 35.5833 132.192 36.3691H132.204V35.1786H132.835V40.6667C132.835 42.25 131.978 43.3572 130.097 43.3572ZM130.025 40.2262C131.371 40.2262 132.228 39.25 132.228 37.9405C132.228 36.6072 131.275 35.7024 130.025 35.7024C128.692 35.7024 127.811 36.6905 127.811 37.9405C127.811 39.3333 128.787 40.2262 130.025 40.2262ZM137.856 43.3095L138.892 40.7976L136.344 35.1786H137.046L139.201 40.0238H139.213L141.213 35.1786H141.892L138.535 43.3095H137.856Z" fill="white"/>
</svg>
