<svg width="22" height="22" viewBox="0 0 22 22" fill="none" xmlns="http://www.w3.org/2000/svg">
<path d="M1.83331 3.66668C1.83331 2.65415 2.65412 1.83334 3.66665 1.83334H7.33331C8.34583 1.83334 9.16665 2.65415 9.16665 3.66668V7.33334C9.16665 8.34587 8.34583 9.16668 7.33331 9.16668H3.66665C2.65412 9.16668 1.83331 8.34587 1.83331 7.33334V3.66668Z" stroke="white" stroke-width="1.2" stroke-linejoin="round"/>
<path d="M12.8333 3.66668C12.8333 2.65415 13.6541 1.83334 14.6666 1.83334H18.3333C19.3458 1.83334 20.1666 2.65415 20.1666 3.66668V7.33334C20.1666 8.34587 19.3458 9.16668 18.3333 9.16668H14.6666C13.6541 9.16668 12.8333 8.34587 12.8333 7.33334V3.66668Z" stroke="white" stroke-width="1.2" stroke-linejoin="round"/>
<path d="M1.83331 14.6667C1.83331 13.6542 2.65412 12.8333 3.66665 12.8333H7.33331C8.34583 12.8333 9.16665 13.6542 9.16665 14.6667V18.3333C9.16665 19.3459 8.34583 20.1667 7.33331 20.1667H3.66665C2.65412 20.1667 1.83331 19.3459 1.83331 18.3333V14.6667Z" stroke="white" stroke-width="1.2" stroke-linejoin="round"/>
<path d="M12.8333 14.6667C12.8333 13.6542 13.6541 12.8333 14.6666 12.8333H18.3333C19.3458 12.8333 20.1666 13.6542 20.1666 14.6667V18.3333C20.1666 19.3459 19.3458 20.1667 18.3333 20.1667H14.6666C13.6541 20.1667 12.8333 19.3459 12.8333 18.3333V14.6667Z" stroke="white" stroke-width="1.2" stroke-linejoin="round"/>
</svg>
