<svg width="22" height="22" viewBox="0 0 22 22" fill="none" xmlns="http://www.w3.org/2000/svg">
<path d="M9.16665 5.5H14.6666M9.16665 12.8333H14.6666M9.16665 9.16667H20.1666M9.16665 16.5H20.1666M2.74998 9.16667H4.58331C5.08957 9.16667 5.49998 8.75626 5.49998 8.25V6.41667C5.49998 5.91041 5.08957 5.5 4.58331 5.5H2.74998C2.24372 5.5 1.83331 5.91041 1.83331 6.41667V8.25C1.83331 8.75626 2.24372 9.16667 2.74998 9.16667ZM2.74998 16.5H4.58331C5.08957 16.5 5.49998 16.0896 5.49998 15.5833V13.75C5.49998 13.2437 5.08957 12.8333 4.58331 12.8333H2.74998C2.24372 12.8333 1.83331 13.2437 1.83331 13.75V15.5833C1.83331 16.0896 2.24372 16.5 2.74998 16.5Z" stroke="#575757" stroke-width="1.2" stroke-linecap="round"/>
</svg>
